<svg version="1.1" xmlns="http://www.w3.org/2000/svg" viewBox="0 0 1024 290" preserveAspectRatio="xMidYMid meet" xmlns:xlink="http://www.w3.org/1999/xlink" xmlns:svgjs="http://svgjs.dev/svgjs">
<path d="M0 0 C0.949 0 1.899 0 2.877 0 C3.97 -0.002 5.063 -0.004 6.189 -0.006 C8.017 -0.002 8.017 -0.002 9.881 0.002 C11.81 -0 11.81 -0 13.778 -0.002 C17.38 -0.005 20.982 -0.002 24.584 0.002 C28.491 0.006 32.397 0.003 36.304 0.002 C43.161 -0 50.018 0.001 56.875 0.005 C67.072 0.011 77.268 0.012 87.465 0.011 C104.614 0.01 121.764 0.013 138.913 0.019 C155.902 0.025 172.89 0.029 189.879 0.03 C191.461 0.03 191.461 0.03 193.076 0.03 C198.433 0.03 203.79 0.031 209.147 0.031 C247.126 0.033 285.104 0.04 323.083 0.049 C359.987 0.058 396.89 0.065 433.794 0.07 C435.499 0.07 435.499 0.07 437.239 0.07 C448.655 0.071 460.072 0.073 471.488 0.074 C494.746 0.077 518.004 0.079 541.262 0.082 C542.331 0.082 543.4 0.083 544.502 0.083 C599.865 0.09 655.228 0.101 710.59 0.114 C711.759 0.114 711.759 0.114 712.951 0.114 C728.259 0.118 743.566 0.121 758.873 0.125 C758.873 21.575 758.873 43.025 758.873 65.125 C724.084 65.133 724.084 65.133 710.59 65.136 C709.75 65.136 708.91 65.136 708.045 65.136 C652.451 65.149 596.856 65.16 541.262 65.167 C539.653 65.167 539.653 65.167 538.011 65.167 C514.702 65.17 491.393 65.173 468.084 65.176 C456.654 65.177 445.224 65.178 433.794 65.18 C432.657 65.18 431.519 65.18 430.347 65.18 C393.444 65.184 356.541 65.192 319.639 65.201 C281.733 65.21 243.827 65.217 205.921 65.219 C200.574 65.219 195.226 65.219 189.879 65.22 C188.3 65.22 188.3 65.22 186.689 65.22 C169.711 65.221 152.732 65.226 135.754 65.232 C118.706 65.237 101.659 65.24 84.612 65.238 C74.469 65.237 64.327 65.239 54.185 65.245 C47.423 65.249 40.661 65.249 33.9 65.247 C30.038 65.245 26.177 65.245 22.316 65.25 C18.171 65.254 14.026 65.251 9.881 65.248 C8.663 65.25 7.445 65.253 6.189 65.256 C5.096 65.253 4.003 65.251 2.877 65.249 C1.453 65.249 1.453 65.249 0 65.249 C-2.127 65.125 -2.127 65.125 -3.127 64.125 C-3.226 62.166 -3.255 60.205 -3.256 58.244 C-3.259 56.986 -3.262 55.728 -3.266 54.432 C-3.264 53.048 -3.262 51.665 -3.259 50.281 C-3.26 48.872 -3.261 47.464 -3.262 46.055 C-3.264 43.099 -3.262 40.143 -3.257 37.188 C-3.251 33.391 -3.255 29.594 -3.261 25.798 C-3.264 22.888 -3.263 19.978 -3.26 17.068 C-3.26 15.668 -3.261 14.267 -3.263 12.867 C-3.265 10.913 -3.261 8.959 -3.256 7.006 C-3.255 5.892 -3.254 4.778 -3.254 3.63 C-3.079 0.18 -3.079 0.18 0 0 Z " fill="#FFC303" transform="translate(265.1266192533076,188.87532883509994)"></path>
<path d="M0 0 C0 0.66 0 1.32 0 2 C-1.842 3.536 -3.692 4.961 -5.625 6.375 C-12.419 11.47 -18.842 16.914 -25.247 22.485 C-26.953 23.96 -28.673 25.416 -30.398 26.867 C-44.467 38.718 -57.605 51.519 -70.625 64.5 C-71.14 65.013 -71.656 65.525 -72.186 66.053 C-77.454 71.3 -82.638 76.579 -87.475 82.23 C-89.861 85 -92.375 87.647 -94.875 90.312 C-99.338 95.11 -103.57 100.032 -107.672 105.145 C-109.814 107.772 -112.011 110.334 -114.238 112.888 C-120.965 120.616 -127.201 128.658 -133.363 136.84 C-134.967 138.957 -136.589 141.059 -138.219 143.156 C-159.308 170.338 -178.65 199.37 -196.148 228.992 C-196.688 229.906 -196.688 229.906 -197.239 230.838 C-199.024 233.863 -200.803 236.892 -202.571 239.928 C-203.218 241.032 -203.865 242.136 -204.531 243.273 C-205.104 244.257 -205.677 245.242 -206.268 246.255 C-206.839 247.161 -207.411 248.067 -208 249 C-208.511 249.933 -209.023 250.866 -209.55 251.827 C-213.485 255.317 -217.597 254.618 -222.672 254.488 C-224.228 254.478 -224.228 254.478 -225.816 254.467 C-229.128 254.439 -232.438 254.376 -235.75 254.312 C-237.996 254.287 -240.242 254.265 -242.488 254.244 C-247.993 254.189 -253.496 254.105 -259 254 C-258.276 250.818 -257.346 248.775 -255.41 246.129 C-254.878 245.397 -254.347 244.665 -253.799 243.91 C-253.226 243.135 -252.653 242.361 -252.062 241.562 C-251.472 240.756 -250.882 239.949 -250.273 239.117 C-245.73 232.931 -241.103 226.816 -236.378 220.768 C-234.821 218.771 -233.274 216.766 -231.727 214.762 C-224.421 205.311 -216.992 195.973 -209.419 186.735 C-208.156 185.19 -206.899 183.638 -205.645 182.086 C-196.838 171.21 -187.646 160.672 -178.107 150.433 C-175.433 147.562 -172.808 144.662 -170.25 141.688 C-167.386 138.371 -164.339 135.293 -161.188 132.25 C-159.352 130.362 -157.646 128.439 -155.934 126.441 C-151.676 121.542 -147.11 116.959 -142.512 112.382 C-141.065 110.94 -139.623 109.493 -138.182 108.045 C-133.542 103.402 -128.846 98.884 -123.861 94.612 C-120.654 91.835 -117.587 88.909 -114.5 86 C-109.414 81.234 -104.311 76.516 -99 72 C-98.051 71.184 -97.102 70.368 -96.125 69.527 C-89.412 63.777 -82.562 58.236 -75.586 52.809 C-73.175 50.929 -70.786 49.026 -68.414 47.098 C-53.848 35.265 -38.513 24.546 -23 14 C-31.494 18.101 -39.659 22.595 -47.75 27.438 C-48.327 27.781 -48.904 28.125 -49.498 28.48 C-68.387 39.743 -87.004 51.351 -105 64 C-105.615 64.431 -106.229 64.862 -106.862 65.306 C-125.718 78.558 -144.227 92.324 -162 107 C-163.771 108.438 -165.542 109.875 -167.312 111.312 C-179.298 121.117 -190.961 131.326 -202.453 141.703 C-204.064 143.156 -205.678 144.604 -207.297 146.047 C-221.167 158.428 -234.503 171.338 -247.631 184.5 C-250.088 186.963 -252.551 189.42 -255.014 191.877 C-256.604 193.468 -258.195 195.06 -259.785 196.652 C-260.508 197.373 -261.231 198.094 -261.976 198.837 C-265.993 202.872 -269.836 207.003 -273.544 211.324 C-275.273 213.314 -277.103 215.169 -279 217 C-282.171 220.128 -285.126 223.369 -288.027 226.746 C-290.424 229.484 -292.9 232.145 -295.375 234.812 C-299.856 239.648 -304.042 244.641 -308.125 249.82 C-310 252 -310 252 -313 254 C-316.094 254.227 -316.094 254.227 -319.855 254.195 C-320.517 254.192 -321.179 254.19 -321.86 254.187 C-323.97 254.176 -326.078 254.15 -328.188 254.125 C-329.619 254.115 -331.051 254.106 -332.482 254.098 C-335.988 254.076 -339.494 254.041 -343 254 C-343.225 249.75 -343.387 245.504 -343.494 241.25 C-343.539 239.807 -343.6 238.365 -343.679 236.924 C-344.312 224.989 -344.312 224.989 -341.093 220.109 C-338.838 217.843 -336.557 215.912 -334 214 C-332.701 212.863 -331.407 211.719 -330.125 210.562 C-329.149 209.725 -329.149 209.725 -328.152 208.871 C-325.619 206.669 -323.157 204.398 -320.688 202.125 C-316.167 197.998 -311.502 194.114 -306.738 190.273 C-303.968 187.973 -301.327 185.575 -298.688 183.125 C-294.103 178.905 -289.332 175.053 -284.405 171.249 C-280.135 167.936 -276.016 164.484 -271.938 160.938 C-266.114 155.892 -260.117 151.127 -253.966 146.489 C-251.685 144.762 -249.417 143.02 -247.148 141.277 C-235.906 132.651 -224.567 124.188 -213 116 C-212.142 115.392 -211.285 114.784 -210.401 114.158 C-187.839 98.21 -164.75 83.12 -141 69 C-140.029 68.422 -139.057 67.843 -138.056 67.247 C-123.239 58.45 -108.225 50.07 -93 42 C-91.934 41.433 -90.868 40.866 -89.77 40.281 C-74.704 32.286 -59.468 24.822 -43.957 17.742 C-39.25 15.593 -34.609 13.352 -30 11 C-61.84 22.083 -93.237 34.195 -124 48 C-125.09 48.487 -126.179 48.974 -127.302 49.476 C-157.582 63.077 -187.723 77.686 -216.369 94.477 C-220.314 96.76 -224.306 98.956 -228.295 101.162 C-241.415 108.43 -254.272 116.067 -267 124 C-267.86 124.535 -268.721 125.07 -269.607 125.621 C-292.309 139.784 -314.683 154.617 -336.479 170.141 C-337.208 170.659 -337.937 171.177 -338.688 171.711 C-339.621 172.381 -339.621 172.381 -340.574 173.064 C-342 174 -342 174 -343 174 C-343 159.81 -343 145.62 -343 131 C-332.687 125.625 -332.687 125.625 -329.21 123.813 C-324.635 121.427 -320.06 119.04 -315.508 116.609 C-288.797 102.36 -261.611 89.107 -233.929 76.856 C-232.055 76.024 -230.183 75.188 -228.312 74.351 C-167.402 47.142 -104.004 25.168 -39.4 8.616 C-36.996 7.999 -34.594 7.378 -32.191 6.755 C-28.414 5.778 -24.634 4.808 -20.852 3.847 C-19.469 3.495 -18.086 3.142 -16.703 2.788 C-14.82 2.307 -12.933 1.835 -11.047 1.363 C-9.993 1.098 -8.94 0.833 -7.854 0.56 C-5.15 0.029 -2.747 -0.11 0 0 Z " fill="#67B289" transform="translate(343,0)"></path>
<path d="M0 0 C0.99 0.33 1.98 0.66 3 1 C2.01 1.33 1.02 1.66 0 2 C0 1.34 0 0.68 0 0 Z M0 3 C-0.981 3.788 -1.962 4.575 -2.973 5.387 C-16.147 16.003 -28.939 26.98 -41.343 38.487 C-42.59 39.626 -43.85 40.752 -45.116 41.871 C-51.808 47.802 -58.17 54.016 -64.478 60.348 C-66.192 62.067 -67.911 63.781 -69.631 65.494 C-74.762 70.622 -79.815 75.758 -84.526 81.281 C-86.89 84.038 -89.391 86.664 -91.875 89.312 C-96.338 94.11 -100.57 99.032 -104.672 104.145 C-106.814 106.772 -109.011 109.334 -111.238 111.888 C-117.965 119.616 -124.201 127.658 -130.363 135.84 C-131.967 137.957 -133.589 140.059 -135.219 142.156 C-156.308 169.338 -175.65 198.37 -193.148 227.992 C-193.688 228.906 -193.688 228.906 -194.239 229.838 C-196.024 232.863 -197.803 235.892 -199.571 238.928 C-200.218 240.032 -200.865 241.136 -201.531 242.273 C-202.104 243.257 -202.677 244.242 -203.268 245.255 C-204.125 246.614 -204.125 246.614 -205 248 C-205.767 249.4 -205.767 249.4 -206.55 250.827 C-210.485 254.317 -214.597 253.618 -219.672 253.488 C-220.709 253.481 -221.747 253.474 -222.816 253.467 C-226.128 253.439 -229.438 253.376 -232.75 253.312 C-234.996 253.287 -237.242 253.265 -239.488 253.244 C-244.993 253.189 -250.496 253.105 -256 253 C-255.276 249.818 -254.346 247.775 -252.41 245.129 C-251.878 244.397 -251.347 243.665 -250.799 242.91 C-250.226 242.135 -249.653 241.361 -249.062 240.562 C-248.472 239.756 -247.882 238.949 -247.273 238.117 C-242.73 231.931 -238.103 225.816 -233.378 219.768 C-231.821 217.771 -230.274 215.766 -228.727 213.762 C-221.421 204.311 -213.992 194.973 -206.419 185.735 C-205.156 184.19 -203.899 182.638 -202.645 181.086 C-193.838 170.21 -184.646 159.672 -175.107 149.433 C-172.433 146.562 -169.808 143.662 -167.25 140.688 C-164.386 137.371 -161.339 134.293 -158.188 131.25 C-156.352 129.362 -154.646 127.439 -152.934 125.441 C-148.676 120.542 -144.11 115.959 -139.512 111.382 C-138.065 109.94 -136.623 108.493 -135.182 107.045 C-130.542 102.402 -125.846 97.884 -120.861 93.612 C-117.654 90.835 -114.587 87.909 -111.5 85 C-106.414 80.234 -101.311 75.516 -96 71 C-95.051 70.184 -94.102 69.368 -93.125 68.527 C-86.412 62.777 -79.562 57.236 -72.586 51.809 C-70.175 49.929 -67.786 48.026 -65.414 46.098 C-55.873 38.346 -46.03 31.104 -36 24 C-35.162 23.403 -34.324 22.807 -33.46 22.192 C-25.223 16.333 -16.98 10.47 -8.438 5.062 C-7.446 4.435 -6.455 3.807 -5.434 3.16 C-3 2 -3 2 0 3 Z " fill="#88EADB" transform="translate(340,1)"></path>
<path d="M0 0 C-1.485 0.495 -1.485 0.495 -3 1 C-3.33 1.66 -3.66 2.32 -4 3 C-5.705 3.663 -5.705 3.663 -8.031 4.289 C-79.923 24.68 -152.089 56.711 -216.401 94.493 C-220.333 96.773 -224.314 98.961 -228.291 101.16 C-241.412 108.428 -254.271 116.067 -267 124 C-267.86 124.535 -268.721 125.07 -269.607 125.621 C-292.309 139.784 -314.683 154.617 -336.479 170.141 C-337.208 170.659 -337.937 171.177 -338.688 171.711 C-339.621 172.381 -339.621 172.381 -340.574 173.064 C-342 174 -342 174 -343 174 C-343 159.81 -343 145.62 -343 131 C-332.687 125.625 -332.687 125.625 -329.21 123.813 C-324.635 121.427 -320.06 119.04 -315.508 116.609 C-288.797 102.36 -261.611 89.107 -233.929 76.856 C-232.055 76.024 -230.183 75.188 -228.312 74.351 C-167.402 47.142 -104.004 25.168 -39.4 8.616 C-36.996 7.999 -34.594 7.378 -32.191 6.755 C-28.414 5.778 -24.634 4.808 -20.852 3.847 C-19.469 3.495 -18.086 3.142 -16.703 2.788 C-14.82 2.307 -12.933 1.835 -11.047 1.363 C-9.993 1.098 -8.94 0.833 -7.854 0.56 C-5.15 0.029 -2.747 -0.11 0 0 Z " fill="#5EA8C9" transform="translate(343,0)"></path>
<path d="M0 0 C4.654 3.989 8.378 7.346 12.288 11.873 C13.284 13.015 14.282 14.156 15.281 15.296 C16.061 16.187 16.061 16.187 16.856 17.095 C20.266 20.945 23.773 24.707 27.275 28.472 C30.329 31.767 33.331 35.09 36.246 38.51 C47.967 53.188 47.967 53.188 64.122 61.312 C74.171 61.462 83.782 57.286 92.934 53.567 C98.617 51.299 104.482 50.054 110.461 48.82 C112.476 48.365 114.49 47.907 116.504 47.445 C118.461 47.005 120.418 46.565 122.375 46.125 C124.418 45.662 126.461 45.198 128.504 44.734 C132.337 43.864 136.172 42.997 140.007 42.134 C143.061 41.444 146.112 40.742 149.157 40.015 C150.314 39.739 151.472 39.464 152.664 39.18 C154.098 38.831 154.098 38.831 155.561 38.476 C158 38 158 38 162 38 C162 38.66 162 39.32 162 40 C161.26 40.255 160.52 40.509 159.757 40.772 C128.313 51.642 97.366 63.762 66.911 77.16 C64.856 78.063 62.799 78.963 60.743 79.863 C43.663 87.342 26.67 94.945 9.945 103.191 C8.919 103.695 7.893 104.199 6.836 104.719 C5.499 105.383 5.499 105.383 4.134 106.061 C2 107 2 107 0 107 C0 71.69 0 36.38 0 0 Z " fill="#FFDC44" transform="translate(0,9)"></path>
<path d="M0 0 C0.99 0.33 1.98 0.66 3 1 C-8.229 10.415 -8.229 10.415 -13.812 14.812 C-24.396 23.238 -34.456 32.306 -44.365 41.508 C-45.538 42.579 -46.726 43.633 -47.923 44.677 C-56.366 52.098 -64.243 60.092 -72.178 68.048 C-74.688 70.563 -77.204 73.074 -79.721 75.584 C-81.339 77.203 -82.957 78.822 -84.574 80.441 C-85.316 81.181 -86.058 81.921 -86.822 82.683 C-90.877 86.756 -94.757 90.924 -98.51 95.276 C-100.172 97.2 -101.891 99.058 -103.648 100.895 C-104.256 101.534 -104.864 102.173 -105.491 102.832 C-106.113 103.486 -106.734 104.139 -107.375 104.812 C-112.375 110.106 -117.165 115.473 -121.703 121.172 C-124.51 124.628 -127.44 127.965 -130.375 131.312 C-136.514 138.348 -142.313 145.597 -148 153 C-149.027 154.329 -150.055 155.659 -151.082 156.988 C-160.349 169.014 -169.328 181.248 -178.293 193.5 C-178.804 194.198 -179.315 194.896 -179.841 195.615 C-180.8 196.924 -181.757 198.234 -182.713 199.545 C-185.89 203.89 -185.89 203.89 -187 205 C-189.884 205.089 -192.745 205.115 -195.629 205.098 C-196.925 205.096 -196.925 205.096 -198.248 205.093 C-201.019 205.088 -203.791 205.075 -206.562 205.062 C-208.437 205.057 -210.311 205.053 -212.186 205.049 C-216.79 205.038 -221.395 205.021 -226 205 C-226 202 -226 202 -223.93 199.77 C-223.472 199.339 -223.014 198.907 -222.542 198.463 C-220.861 196.868 -219.278 195.205 -217.695 193.512 C-217.115 192.892 -216.535 192.272 -215.938 191.633 C-215.34 190.991 -214.741 190.349 -214.125 189.688 C-213.503 189.021 -212.881 188.355 -212.24 187.668 C-208.583 183.738 -205.004 179.758 -201.504 175.688 C-199.379 173.303 -197.1 171.088 -194.82 168.853 C-193.157 167.159 -191.629 165.42 -190.102 163.605 C-184.679 157.369 -178.737 151.631 -172.875 145.812 C-171.696 144.639 -170.518 143.465 -169.34 142.291 C-167.176 140.135 -165.01 137.98 -162.843 135.827 C-158.832 131.84 -154.836 127.838 -150.855 123.82 C-149.3 122.255 -147.744 120.69 -146.188 119.125 C-145.419 118.348 -144.65 117.57 -143.857 116.77 C-139.629 112.523 -135.333 108.437 -130.769 104.552 C-128.931 102.939 -127.212 101.246 -125.5 99.5 C-121.837 95.788 -117.961 92.389 -114 89 C-112.957 88.104 -111.914 87.208 -110.871 86.312 C-108.487 84.265 -106.1 82.222 -103.711 80.18 C-101.292 78.11 -98.881 76.032 -96.477 73.945 C-90.233 68.536 -83.911 63.279 -77.386 58.212 C-72.907 54.732 -68.51 51.16 -64.125 47.562 C-56.897 41.654 -49.485 36.029 -41.982 30.475 C-40.026 29.02 -38.082 27.55 -36.141 26.074 C-26.287 18.596 -16.21 11.47 -6.036 4.435 C-3.948 3.007 -3.948 3.007 -1.925 1.254 C-1.29 0.84 -0.654 0.426 0 0 Z " fill="#FFDA21" transform="translate(264,49)"></path>
<path d="M0 0 C2.558 2.553 5.11 5.111 7.648 7.684 C12.596 12.681 17.563 17.53 23 22 C21.421 25.894 18.759 28.482 15.801 31.359 C15.288 31.867 14.774 32.376 14.245 32.899 C12.606 34.521 10.96 36.136 9.312 37.75 C7.159 39.866 5.009 41.986 2.863 44.109 C2.346 44.621 1.829 45.132 1.296 45.66 C-2.171 49.113 -5.452 52.675 -8.624 56.399 C-10.319 58.372 -12.13 60.194 -14 62 C-17.171 65.128 -20.126 68.369 -23.027 71.746 C-25.424 74.484 -27.9 77.145 -30.375 79.812 C-34.856 84.648 -39.042 89.641 -43.125 94.82 C-45 97 -45 97 -48 99 C-51.094 99.227 -51.094 99.227 -54.855 99.195 C-55.517 99.192 -56.179 99.19 -56.86 99.187 C-58.97 99.176 -61.078 99.15 -63.188 99.125 C-64.619 99.115 -66.051 99.106 -67.482 99.098 C-70.988 99.076 -74.494 99.041 -78 99 C-78.225 94.75 -78.387 90.504 -78.494 86.25 C-78.539 84.807 -78.6 83.365 -78.679 81.924 C-79.312 69.989 -79.312 69.989 -76.093 65.109 C-73.838 62.843 -71.557 60.912 -69 59 C-67.701 57.863 -66.407 56.719 -65.125 55.562 C-64.474 55.004 -63.823 54.446 -63.152 53.871 C-60.619 51.669 -58.157 49.398 -55.688 47.125 C-51.167 42.998 -46.502 39.114 -41.738 35.273 C-38.968 32.973 -36.327 30.575 -33.688 28.125 C-29.112 23.913 -24.351 20.068 -19.434 16.271 C-12.752 11.086 -6.377 5.553 0 0 Z " fill="#3ABD70" transform="translate(78,155)"></path>
<path d="M0 0 C-0.803 0.435 -0.803 0.435 -1.623 0.879 C-8.425 4.569 -15.215 8.279 -22 12 C-23.005 12.551 -24.009 13.101 -25.044 13.668 C-54.846 30.047 -83.866 47.897 -112 67 C-112.625 67.423 -113.25 67.846 -113.894 68.282 C-146.715 90.536 -178.219 114.839 -208.363 140.601 C-210.095 142.081 -211.831 143.558 -213.566 145.035 C-219.711 150.273 -225.793 155.563 -231.773 160.988 C-234.459 163.415 -237.184 165.792 -239.918 168.164 C-241.499 169.558 -243.061 170.973 -244.613 172.398 C-245.504 173.216 -246.395 174.033 -247.312 174.875 C-248.134 175.636 -248.955 176.396 -249.801 177.18 C-252 179 -252 179 -255 180 C-258.808 148.583 -258.808 148.583 -252.822 139.806 C-247.298 134.748 -240.914 131.593 -234.128 128.545 C-229.87 126.442 -226.252 123.724 -222.477 120.863 C-219.231 118.421 -215.844 116.293 -212.375 114.188 C-210.986 113.332 -209.598 112.475 -208.211 111.617 C-207.512 111.185 -206.813 110.753 -206.093 110.308 C-202.699 108.187 -199.351 105.999 -196 103.812 C-178.578 92.486 -160.894 81.565 -143 71 C-142.261 70.563 -141.522 70.126 -140.761 69.676 C-115.071 54.528 -88.769 40.585 -62.177 27.105 C-60.027 26.014 -57.879 24.92 -55.732 23.825 C-41.845 16.748 -27.92 9.795 -13.688 3.438 C-12.643 2.966 -11.599 2.494 -10.523 2.008 C-9.094 1.383 -9.094 1.383 -7.637 0.746 C-6.809 0.382 -5.981 0.018 -5.128 -0.358 C-3 -1 -3 -1 0 0 Z " fill="#FFDA20" transform="translate(255,36)"></path>
<path d="M0 0 C0.99 0.495 0.99 0.495 2 1 C1.705 1.53 1.409 2.061 1.105 2.607 C-13.085 28.155 -25.64 54.233 -37.168 81.068 C-37.959 82.905 -38.756 84.74 -39.553 86.575 C-40.884 89.648 -42.197 92.728 -43.5 95.812 C-43.88 96.689 -44.26 97.565 -44.651 98.468 C-45.98 101.676 -46.987 104.241 -47.047 107.73 C-45.565 110.943 -43.299 113.124 -40.75 115.5 C-40.272 115.96 -39.794 116.42 -39.301 116.895 C-37.873 118.269 -36.436 119.634 -35 121 C-34.145 121.862 -33.291 122.725 -32.41 123.613 C-29.596 126.4 -26.614 128.915 -23.574 131.449 C-23.055 131.961 -22.535 132.473 -22 133 C-22 133.66 -22 134.32 -22 135 C-21.411 135.265 -20.822 135.53 -20.216 135.803 C-16.463 137.83 -13.738 140.934 -10.75 143.938 C-10.1 144.571 -9.451 145.205 -8.781 145.857 C-8.168 146.47 -7.554 147.083 -6.922 147.715 C-6.361 148.273 -5.8 148.831 -5.222 149.406 C-4 151 -4 151 -4 154 C-34.03 154 -64.06 154 -95 154 C-93.875 147.252 -93.875 147.252 -91.734 143.445 C-91.264 142.596 -90.793 141.747 -90.308 140.873 C-89.794 139.966 -89.28 139.059 -88.75 138.125 C-87.644 136.141 -86.538 134.157 -85.434 132.172 C-84.862 131.15 -84.291 130.129 -83.703 129.076 C-82.074 126.134 -80.484 123.175 -78.91 120.203 C-32.279 32.279 -32.279 32.279 0 0 Z " fill="#FEDC44" transform="translate(248,100)"></path>
<path d="M0 0 C7.92 0 15.84 0 24 0 C28.29 9.9 32.58 19.8 37 30 C41.29 20.1 45.58 10.2 50 0 C57.92 0 65.84 0 74 0 C74 21.45 74 42.9 74 65 C67.4 65 60.8 65 54 65 C53.67 56.09 53.34 47.18 53 38 C50.409 44.536 50.409 44.536 47.824 51.074 C47.502 51.884 47.18 52.693 46.848 53.527 C46.518 54.36 46.188 55.193 45.848 56.051 C45 58 45 58 44 59 C41.647 59.073 39.292 59.084 36.938 59.062 C35.647 59.053 34.357 59.044 33.027 59.035 C32.028 59.024 31.029 59.012 30 59 C26.86 52.053 23.934 45.042 21 38 C20.67 46.91 20.34 55.82 20 65 C13.4 65 6.8 65 0 65 C0 43.55 0 22.1 0 0 Z " fill="#2D5BA1" transform="translate(398,111)"></path>
<path d="M0 0 C19 0 19 0 22.938 3 C23.99 4.647 25.004 6.318 26 8 C27.485 10.038 29.014 12.039 30.547 14.041 C32.581 16.702 34.569 19.395 36.555 22.091 C38.325 24.429 40.168 26.71 42 29 C42.33 19.43 42.66 9.86 43 0 C49.93 0 56.86 0 64 0 C64 21.45 64 42.9 64 65 C45 65 45 65 39.562 60 C38.431 58.326 37.302 56.65 36.239 54.931 C34.353 51.992 32.216 49.255 30.095 46.482 C28.5 44.395 26.932 42.289 25.371 40.176 C23.783 38.004 23.783 38.004 22 36 C21.67 45.57 21.34 55.14 21 65 C14.07 65 7.14 65 0 65 C0 43.55 0 22.1 0 0 Z " fill="#2D5BA1" transform="translate(556,111)"></path>
<path d="M0 0 C8.848 -0.093 8.848 -0.093 17.875 -0.188 C19.716 -0.215 21.556 -0.242 23.453 -0.27 C35.863 -0.379 46.187 0.631 56 9 C62.923 16.561 65.356 24.383 65.219 34.566 C64.321 44.557 59.866 52.003 52.277 58.391 C44.088 64.178 34.898 65.172 25.098 65.098 C24.456 65.097 23.814 65.096 23.153 65.095 C20.79 65.089 18.426 65.075 16.062 65.062 C10.762 65.042 5.461 65.021 0 65 C0 43.55 0 22.1 0 0 Z M23 18 C23 27.57 23 37.14 23 47 C33.117 47.939 33.117 47.939 37.562 44.875 C41.001 40.819 41.836 37.8 42.312 32.562 C41.853 27.32 40.337 23.63 37 19.562 C32.938 17.153 32.938 17.153 23 18 Z " fill="#2D5BA1" transform="translate(629,111)"></path>
<path d="M0 0 C8.848 -0.093 8.848 -0.093 17.875 -0.188 C19.716 -0.215 21.556 -0.242 23.453 -0.27 C35.755 -0.378 46.35 0.533 56 9 C62.295 16.175 65.662 25.141 65.289 34.707 C64.034 44.664 59.931 51.948 52.277 58.391 C44.088 64.178 34.898 65.172 25.098 65.098 C24.456 65.097 23.814 65.096 23.153 65.095 C20.79 65.089 18.426 65.075 16.062 65.062 C10.762 65.042 5.461 65.021 0 65 C0 43.55 0 22.1 0 0 Z M23 18 C23 27.57 23 37.14 23 47 C33.117 47.939 33.117 47.939 37.562 44.875 C41.001 40.819 41.836 37.8 42.312 32.562 C41.892 27.767 40.526 23.907 37.5 20.125 C32.986 16.739 28.936 18 23 18 Z " fill="#2D5BA1" transform="translate(262,111)"></path>
<path d="M0 0 C18.48 0 36.96 0 56 0 C56 5.61 56 11.22 56 17 C45.11 17 34.22 17 23 17 C23 19.31 23 21.62 23 24 C32.9 24 42.8 24 53 24 C53 29.61 53 35.22 53 41 C43.1 41 33.2 41 23 41 C23 42.98 23 44.96 23 47 C33.89 47 44.78 47 56 47 C56 52.94 56 58.88 56 65 C37.52 65 19.04 65 0 65 C0 43.55 0 22.1 0 0 Z " fill="#2D5BA2" transform="translate(333,111)"></path>
<path d="M0 0 C7.59 0 15.18 0 23 0 C27.108 8.715 30.851 17.446 34.312 26.438 C38.213 36.483 42.199 46.483 46.359 56.424 C46.883 57.687 46.883 57.687 47.418 58.977 C47.725 59.71 48.032 60.443 48.348 61.198 C49 63 49 63 49 65 C41.08 65 33.16 65 25 65 C24.01 62.36 23.02 59.72 22 57 C14.41 56.67 6.82 56.34 -1 56 C-1.99 58.97 -2.98 61.94 -4 65 C-11.59 65 -19.18 65 -27 65 C-25.08 59.24 -23.152 53.737 -20.742 48.203 C-20.437 47.495 -20.133 46.787 -19.819 46.057 C-18.841 43.786 -17.858 41.518 -16.875 39.25 C-16.2 37.685 -15.526 36.12 -14.851 34.555 C-13.519 31.464 -12.185 28.374 -10.85 25.285 C-8.408 19.633 -5.985 13.973 -3.562 8.312 C-2.387 5.569 -1.211 2.826 0 0 Z M10 25 C9.327 26.769 8.662 28.54 8 30.312 C7.629 31.299 7.257 32.285 6.875 33.301 C5.846 36.003 5.846 36.003 6 39 C9.3 39 12.6 39 16 39 C15.522 37.229 15.042 35.458 14.562 33.688 C14.296 32.701 14.029 31.715 13.754 30.699 C13.219 28.785 12.629 26.886 12 25 C11.34 25 10.68 25 10 25 Z " fill="#2D5BA2" transform="translate(503,111)"></path>
<path d="M0 0 C5.569 -0.062 11.138 -0.124 16.875 -0.188 C18.611 -0.215 20.347 -0.242 22.136 -0.27 C40.68 -0.441 40.68 -0.441 48.375 5.188 C54.587 11.843 55.675 17.548 55.383 26.652 C54.666 32.924 52.521 36.919 47.75 41 C46.842 41.66 45.935 42.32 45 43 C46.608 47.779 49.281 51.581 52.125 55.688 C57 62.731 57 62.731 57 65 C51.06 65 45.12 65 39 65 C37.495 62.378 35.996 59.753 34.5 57.125 C34.071 56.379 33.641 55.632 33.199 54.863 C32.793 54.148 32.387 53.432 31.969 52.695 C31.592 52.035 31.215 51.376 30.826 50.696 C30 49 30 49 30 47 C25.38 47 20.76 47 16 47 C16 52.94 16 58.88 16 65 C10.72 65 5.44 65 0 65 C0 43.55 0 22.1 0 0 Z M16 13 C16 19.6 16 26.2 16 33 C20.331 33.062 20.331 33.062 24.75 33.125 C25.653 33.143 26.557 33.161 27.487 33.18 C28.208 33.185 28.929 33.19 29.672 33.195 C30.772 33.211 30.772 33.211 31.894 33.227 C34.332 32.964 35.908 32.261 38 31 C40.304 28.005 40.477 24.691 40.387 20.969 C39.714 17.542 37.699 16.024 35 14 C31.21 12.596 27.233 12.889 23.25 12.938 C20.857 12.958 18.465 12.979 16 13 Z " fill="#2D5BA1" transform="translate(839,111)"></path>
<path d="M0 0 C16.17 0 32.34 0 49 0 C49 4.29 49 8.58 49 13 C32.665 13.495 32.665 13.495 16 14 C16 17.96 16 21.92 16 26 C25.9 26 35.8 26 46 26 C46 30.29 46 34.58 46 39 C36.1 39.33 26.2 39.66 16 40 C16 43.63 16 47.26 16 51 C27.22 51 38.44 51 50 51 C50 55.62 50 60.24 50 65 C33.5 65 17 65 0 65 C0 43.55 0 22.1 0 0 Z " fill="#2C599F" transform="translate(974,111)"></path>
<path d="M0 0 C5.28 0 10.56 0 16 0 C16.015 1.276 16.029 2.553 16.044 3.868 C16.102 8.611 16.179 13.354 16.262 18.097 C16.296 20.148 16.324 22.2 16.346 24.251 C16.38 27.203 16.432 30.154 16.488 33.105 C16.495 34.02 16.501 34.935 16.508 35.877 C16.619 40.715 16.839 44.082 20 48 C23.073 50.157 25.739 50.271 29.438 50.25 C30.364 50.255 31.291 50.26 32.246 50.266 C35.361 49.965 37.33 49.667 40 48 C42.077 42.445 42.335 37.236 42.414 31.348 C42.433 30.448 42.453 29.547 42.473 28.62 C42.532 25.768 42.579 22.915 42.625 20.062 C42.663 18.119 42.702 16.176 42.742 14.232 C42.838 9.488 42.922 4.744 43 0 C48.28 0 53.56 0 59 0 C59.05 5.513 59.086 11.027 59.11 16.541 C59.12 18.412 59.133 20.284 59.151 22.156 C59.175 24.862 59.187 27.567 59.195 30.273 C59.206 31.097 59.216 31.92 59.227 32.768 C59.228 42.72 57.883 50.584 51 58 C44.975 64.025 37.892 65.194 29.625 65.438 C21.029 65.231 13.607 63.728 7.062 57.875 C0.852 50.665 -0.601 42.661 -0.391 33.398 C-0.385 32.436 -0.379 31.473 -0.373 30.482 C-0.351 27.446 -0.301 24.411 -0.25 21.375 C-0.23 19.301 -0.212 17.227 -0.195 15.152 C-0.152 10.101 -0.083 5.051 0 0 Z " fill="#2C5AA1" transform="translate(767,111)"></path>
<path d="M0 0 C0.99 0.33 1.98 0.66 3 1 C-8.229 10.415 -8.229 10.415 -13.812 14.812 C-24.396 23.238 -34.456 32.306 -44.365 41.508 C-45.538 42.579 -46.726 43.633 -47.923 44.677 C-56.366 52.098 -64.243 60.092 -72.178 68.048 C-74.688 70.563 -77.204 73.074 -79.721 75.584 C-81.339 77.203 -82.957 78.822 -84.574 80.441 C-85.316 81.181 -86.058 81.921 -86.822 82.683 C-90.877 86.756 -94.757 90.924 -98.51 95.276 C-100.172 97.2 -101.891 99.058 -103.648 100.895 C-104.256 101.534 -104.864 102.173 -105.491 102.832 C-106.113 103.486 -106.734 104.139 -107.375 104.812 C-112.366 110.097 -117.147 115.454 -121.68 121.141 C-125.149 125.416 -128.777 129.552 -132.397 133.699 C-135.648 137.427 -138.848 141.188 -142 145 C-145.996 143.259 -149.318 140.64 -152.75 138 C-153.352 137.549 -153.954 137.098 -154.574 136.633 C-156.089 135.472 -157.55 134.241 -159 133 C-159 132.34 -159 131.68 -159 131 C-157.742 129.766 -157.742 129.766 -155.875 128.25 C-151.691 124.706 -147.848 120.898 -144 117 C-139.706 112.659 -135.385 108.453 -130.723 104.504 C-128.896 102.909 -127.199 101.23 -125.5 99.5 C-121.837 95.788 -117.961 92.389 -114 89 C-112.957 88.104 -111.914 87.208 -110.871 86.312 C-108.487 84.265 -106.1 82.222 -103.711 80.18 C-101.292 78.11 -98.881 76.032 -96.477 73.945 C-90.233 68.536 -83.911 63.279 -77.386 58.212 C-72.907 54.732 -68.51 51.16 -64.125 47.562 C-56.897 41.654 -49.485 36.029 -41.982 30.475 C-40.026 29.02 -38.082 27.55 -36.141 26.074 C-26.287 18.596 -16.21 11.47 -6.036 4.435 C-3.948 3.007 -3.948 3.007 -1.925 1.254 C-1.29 0.84 -0.654 0.426 0 0 Z " fill="#FEDC44" transform="translate(264,49)"></path>
<path d="M0 0 C-0.99 0.33 -1.98 0.66 -3 1 C-3.33 1.66 -3.66 2.32 -4 3 C-5.705 3.663 -5.705 3.663 -8.031 4.289 C-50.519 16.34 -91.769 33.336 -131.938 51.562 C-132.649 51.885 -133.36 52.208 -134.093 52.54 C-143.138 56.662 -152.052 61.001 -160.898 65.535 C-161.81 66 -162.722 66.466 -163.661 66.945 C-168.132 69.229 -172.589 71.534 -177.029 73.877 C-178.651 74.713 -180.272 75.548 -181.895 76.383 C-182.627 76.78 -183.36 77.177 -184.115 77.586 C-187.717 79.413 -189.313 80.121 -193.402 79.402 C-196.936 77.495 -197.526 75.604 -198.875 71.875 C-199.285 70.779 -199.695 69.684 -200.117 68.555 C-200.554 67.29 -200.554 67.29 -201 66 C-202.65 66 -204.3 66 -206 66 C-202.426 62.919 -198.358 61.375 -194.012 59.699 C-193.214 59.387 -192.417 59.074 -191.595 58.752 C-188.962 57.723 -186.325 56.704 -183.688 55.688 C-182.775 55.334 -181.862 54.981 -180.922 54.617 C-134.534 36.662 -87.601 20.965 -39.4 8.616 C-36.996 7.999 -34.594 7.378 -32.191 6.755 C-28.414 5.778 -24.634 4.808 -20.852 3.847 C-19.469 3.495 -18.086 3.142 -16.703 2.788 C-14.82 2.307 -12.933 1.835 -11.047 1.363 C-9.993 1.098 -8.94 0.833 -7.854 0.56 C-5.15 0.029 -2.747 -0.11 0 0 Z M-194 80 C-192 81 -192 81 -192 81 Z " fill="#4788B8" transform="translate(343,0)"></path>
<path d="M0 0 C-0.803 0.435 -0.803 0.435 -1.623 0.879 C-8.425 4.569 -15.215 8.279 -22 12 C-23.005 12.551 -24.009 13.101 -25.044 13.668 C-54.846 30.047 -83.866 47.897 -112 67 C-112.625 67.423 -113.25 67.846 -113.894 68.282 C-131.236 80.041 -148.031 92.47 -164.661 105.213 C-169.414 108.844 -174.204 112.425 -179 116 C-183.195 112.728 -186.351 109.762 -189.242 105.277 C-189.764 104.474 -190.286 103.671 -190.824 102.844 C-191.212 102.235 -191.6 101.627 -192 101 C-190.984 100.375 -190.984 100.375 -189.947 99.738 C-187.328 98.127 -184.709 96.516 -182.09 94.906 C-180.303 93.807 -178.517 92.709 -176.73 91.61 C-171.255 88.244 -165.785 84.873 -160.336 81.465 C-148.391 73.998 -136.292 66.88 -124 60 C-122.424 59.113 -122.424 59.113 -120.815 58.208 C-101.51 47.364 -81.926 37.116 -62.177 27.105 C-60.027 26.014 -57.879 24.92 -55.732 23.825 C-41.845 16.748 -27.92 9.795 -13.688 3.438 C-12.643 2.966 -11.599 2.494 -10.523 2.008 C-9.094 1.383 -9.094 1.383 -7.637 0.746 C-6.809 0.382 -5.981 0.018 -5.128 -0.358 C-3 -1 -3 -1 0 0 Z " fill="#FFDC44" transform="translate(255,36)"></path>
<path d="M0 0 C1.265 1.541 1.265 1.541 2.68 3.691 C3.455 4.862 3.455 4.862 4.246 6.057 C4.784 6.884 5.321 7.711 5.875 8.562 C6.405 9.362 6.935 10.162 7.48 10.986 C10.496 15.57 13.335 20.204 16 25 C14.172 26.219 12.344 27.438 10.516 28.656 C9.945 29.037 9.374 29.417 8.786 29.809 C7.565 30.623 6.344 31.437 5.124 32.251 C4.505 32.663 3.887 33.075 3.25 33.5 C2.653 33.898 2.056 34.296 1.441 34.706 C0.851 35.1 0.26 35.493 -0.348 35.898 C-0.937 36.292 -1.527 36.685 -2.135 37.09 C-3.332 37.888 -4.53 38.687 -5.727 39.485 C-8.546 41.366 -11.367 43.243 -14.193 45.115 C-21.686 50.085 -29.053 55.216 -36.389 60.414 C-37.234 61.01 -38.079 61.605 -38.949 62.219 C-40.084 63.022 -40.084 63.022 -41.241 63.842 C-43 65 -43 65 -44 65 C-44 50.81 -44 36.62 -44 22 C-33.688 16.625 -33.688 16.625 -30.285 14.853 C-25.284 12.246 -20.29 9.629 -15.312 6.977 C-14.445 6.516 -13.578 6.055 -12.685 5.58 C-11.043 4.706 -9.404 3.829 -7.766 2.948 C-2.222 0 -2.222 0 0 0 Z " fill="#36A5C5" transform="translate(44,109)"></path>
<path d="M0 0 C6.717 5.597 6.717 5.597 7.156 9.559 C11.248 36.979 24.061 66.113 38 90 C37.194 90.373 36.387 90.746 35.557 91.13 C32.529 92.53 29.503 93.932 26.477 95.334 C25.173 95.938 23.87 96.541 22.566 97.144 C20.679 98.017 18.793 98.891 16.906 99.766 C16.298 100.048 15.689 100.33 15.062 100.62 C11.749 102.163 8.471 103.755 5.219 105.422 C2 107 2 107 0 107 C0 71.69 0 36.38 0 0 Z " fill="#FFC403" transform="translate(0,9)"></path>
<path d="M0 0 C2.224 1.553 4.049 3.103 6 5 C4.636 7.992 3.051 10.29 0.875 12.75 C0.336 13.364 -0.203 13.977 -0.758 14.609 C-1.168 15.068 -1.578 15.527 -2 16 C-4.834 15.425 -5.919 15.074 -8.125 13.062 C-12.746 9.747 -17.807 8.516 -23.473 9.375 C-29.343 11.1 -33.118 13.864 -36.312 19.188 C-37.969 25.965 -37.759 32.175 -34.277 38.309 C-31.574 41.889 -28.165 43.612 -24 45 C-17.515 45.509 -11.911 44.264 -6.75 40.25 C-5 39 -5 39 -3.062 38.938 C0.098 40.566 1.819 43.245 4 46 C4.99 46.495 4.99 46.495 6 47 C3.498 53.097 -2.849 56.202 -8.625 58.875 C-17.45 61.817 -28.02 60.983 -36.5 57.387 C-44.702 52.837 -50.624 46.143 -53.598 37.203 C-55.37 27.5 -54.905 18.248 -49.891 9.625 C-38.153 -6.672 -17.136 -9.876 0 0 Z " fill="#2C5AA1" transform="translate(753,116)"></path>
<path d="M0 0 C5.28 0 10.56 0 16 0 C19.601 7.71 22.531 15.62 25.429 23.613 C26.256 25.893 27.093 28.169 27.93 30.445 C28.459 31.898 28.988 33.351 29.516 34.805 C29.766 35.483 30.015 36.161 30.273 36.86 C31.303 39.721 32 41.932 32 45 C32.66 45 33.32 45 34 45 C34.164 44.173 34.164 44.173 34.332 43.33 C35.476 37.857 37.027 32.725 39.004 27.5 C39.287 26.738 39.571 25.976 39.863 25.192 C40.456 23.601 41.052 22.011 41.65 20.422 C42.57 17.981 43.48 15.536 44.389 13.09 C44.968 11.539 45.548 9.988 46.129 8.438 C46.538 7.339 46.538 7.339 46.956 6.219 C48.884 1.116 48.884 1.116 50 0 C52.697 -0.073 55.367 -0.092 58.062 -0.062 C58.821 -0.058 59.58 -0.053 60.361 -0.049 C62.241 -0.037 64.12 -0.019 66 0 C63.175 8.925 59.721 17.598 56.312 26.312 C55.683 27.927 55.053 29.542 54.423 31.157 C50.011 42.463 45.551 53.749 41 65 C35.72 65 30.44 65 25 65 C22.074 59.341 19.573 53.65 17.285 47.707 C16.948 46.839 16.61 45.971 16.262 45.077 C15.192 42.324 14.127 39.568 13.062 36.812 C12.353 34.984 11.642 33.155 10.932 31.326 C9.566 27.811 8.205 24.294 6.848 20.776 C5.705 17.815 4.552 14.858 3.382 11.908 C2.696 10.165 2.696 10.165 1.996 8.387 C1.605 7.403 1.213 6.419 0.81 5.405 C0 3 0 3 0 0 Z " fill="#2D5BA1" transform="translate(900,111)"></path>
<path d="M0 0 C2 1 2 1 2 1 Z M0 2 C-3.415 3.94 -6.832 5.877 -10.25 7.812 C-11.295 8.405 -12.341 8.997 -13.418 9.608 C-19.12 12.831 -24.839 16.016 -30.599 19.135 C-48.669 28.94 -65.963 39.857 -83.062 51.25 C-83.753 51.71 -84.444 52.169 -85.155 52.643 C-98.031 61.228 -110.613 70.182 -123.062 79.375 C-123.864 79.964 -124.665 80.553 -125.49 81.16 C-128.679 83.512 -131.833 85.863 -134.898 88.375 C-137.317 90.245 -139.014 90.541 -142 91 C-144.234 91.991 -144.234 91.991 -146 93 C-149.35 89.188 -151.17 85.667 -153 81 C-151.667 79.667 -150.333 78.333 -149 77 C-148.426 76.376 -147.853 75.752 -147.262 75.109 C-144.593 72.62 -141.699 70.824 -138.562 69 C-137.914 68.618 -137.266 68.235 -136.598 67.841 C-134.404 66.552 -132.203 65.275 -130 64 C-129.208 63.54 -128.416 63.081 -127.601 62.607 C-14.603 -2.868 -14.603 -2.868 0 2 Z M-153 78 C-151 79 -151 79 -151 79 Z M-141 90 C-140.34 90.33 -139.68 90.66 -139 91 C-140.98 91.99 -140.98 91.99 -143 93 C-142.34 92.01 -141.68 91.02 -141 90 Z " fill="#5B8C76" transform="translate(337,2)"></path>
<path d="M0 0 C0.99 0.33 1.98 0.66 3 1 C2.01 1.33 1.02 1.66 0 2 C0 1.34 0 0.68 0 0 Z M0 3 C-0.981 3.788 -1.962 4.575 -2.973 5.387 C-16.147 16.003 -28.939 26.98 -41.343 38.487 C-42.59 39.626 -43.85 40.752 -45.116 41.871 C-51.808 47.802 -58.17 54.016 -64.478 60.348 C-66.192 62.067 -67.911 63.781 -69.631 65.494 C-74.76 70.621 -79.812 75.755 -84.521 81.276 C-86.906 84.057 -89.43 86.705 -91.938 89.375 C-96.359 94.099 -100.443 98.953 -104.281 104.172 C-106.241 106.257 -107.281 106.407 -110 107 C-111.528 108.378 -111.528 108.378 -112.75 110.062 C-113.864 111.517 -113.864 111.517 -115 113 C-118.403 111.866 -119.084 110.986 -121.188 108.188 C-121.717 107.5 -122.247 106.813 -122.793 106.105 C-124 104 -124 104 -124 100 C-122.285 98 -122.285 98 -120.062 96 C-117.062 93.487 -117.062 93.487 -115.562 90.051 C-114.675 86.816 -112.426 85.361 -109.938 83.188 C-109.437 82.746 -108.936 82.304 -108.419 81.849 C-106.953 80.559 -105.477 79.279 -104 78 C-103.323 77.399 -102.646 76.799 -101.949 76.18 C-99.981 74.435 -97.994 72.715 -96 71 C-94.569 69.768 -94.569 69.768 -93.109 68.512 C-86.4 62.769 -79.556 57.232 -72.586 51.809 C-70.175 49.929 -67.786 48.026 -65.414 46.098 C-55.873 38.346 -46.03 31.104 -36 24 C-35.162 23.403 -34.324 22.807 -33.46 22.192 C-25.223 16.333 -16.98 10.47 -8.438 5.062 C-6.951 4.121 -6.951 4.121 -5.434 3.16 C-3 2 -3 2 0 3 Z M-118 91 C-117.34 91.33 -116.68 91.66 -116 92 C-116.99 92.99 -117.98 93.98 -119 95 C-119.66 94.67 -120.32 94.34 -121 94 C-120.01 93.01 -119.02 92.02 -118 91 Z M-122 95 C-121.67 95.66 -121.34 96.32 -121 97 C-121.66 96.67 -122.32 96.34 -123 96 C-122.67 95.67 -122.34 95.34 -122 95 Z M-127 99 C-126.34 99.33 -125.68 99.66 -125 100 C-126.485 100.99 -126.485 100.99 -128 102 C-127.67 101.01 -127.34 100.02 -127 99 Z M-109 106 C-109 109 -109 109 -109 109 Z M-112 110 C-112 113 -112 113 -112 113 Z M-115 113 C-114.01 113.495 -114.01 113.495 -113 114 C-113.99 114.495 -113.99 114.495 -115 115 C-115 114.34 -115 113.68 -115 113 Z " fill="#5CE0D1" transform="translate(340,1)"></path>
<path d="M0 0 C0.849 0.384 0.849 0.384 1.715 0.775 C14.234 6.404 26.753 11.586 39.836 15.779 C46.028 17.869 49.293 19.584 53 25 C53.66 25.33 54.32 25.66 55 26 C55 26.66 55 27.32 55 28 C57.31 28.66 59.62 29.32 62 30 C62 30.33 62 30.66 62 31 C36.59 31 11.18 31 -15 31 C-14.175 26.052 -13.645 23.835 -11.348 19.707 C-10.818 18.747 -10.289 17.788 -9.744 16.799 C-8.912 15.321 -8.912 15.321 -8.062 13.812 C-7.511 12.815 -6.96 11.818 -6.393 10.791 C-4.353 7.116 -2.332 3.499 0 0 Z " fill="#FFC303" transform="translate(168,223)"></path>
<path d="M0 0 C3.96 0 7.92 0 12 0 C13.004 2.29 14.004 4.582 15 6.875 C15.286 7.526 15.572 8.177 15.867 8.848 C18 13.773 18 13.773 18 16 C18.66 16 19.32 16 20 16 C20.112 15.295 20.224 14.59 20.34 13.863 C21.477 8.929 23.852 4.571 26 0 C29.96 0 33.92 0 38 0 C38 10.89 38 21.78 38 33 C34.7 33 31.4 33 28 33 C27.67 28.38 27.34 23.76 27 19 C25.68 22.63 24.36 26.26 23 30 C20.36 30 17.72 30 15 30 C13.68 26.7 12.36 23.4 11 20 C10.67 24.29 10.34 28.58 10 33 C6.7 33 3.4 33 0 33 C0 22.11 0 11.22 0 0 Z " fill="#FFFDF8" transform="translate(304,205)"></path>
<path d="M0 0 C5.507 -0.124 5.507 -0.124 11.125 -0.25 C12.271 -0.286 13.417 -0.323 14.598 -0.36 C20.731 -0.427 24.363 -0.15 29 4 C31.591 7.415 31.359 10.832 31 15 C30.048 17.023 29.052 19.027 28 21 C28 24.868 28.274 26.013 30 29.25 C30.99 31.106 30.99 31.106 32 33 C27.71 33 23.42 33 19 33 C18.056 30.949 17.112 28.898 16.168 26.848 C15.064 24.67 15.064 24.67 12 24 C12 26.97 12 29.94 12 33 C8.04 33 4.08 33 0 33 C0 22.11 0 11.22 0 0 Z " fill="#FFFCF5" transform="translate(479,205)"></path>
<path d="M0 0 C10 0 10 0 13.383 3.281 C14.331 4.664 15.245 6.072 16.125 7.5 C16.605 8.215 17.084 8.931 17.578 9.668 C18.75 11.425 19.879 13.21 21 15 C21.33 10.05 21.66 5.1 22 0 C25.3 0 28.6 0 32 0 C32 10.89 32 21.78 32 33 C22 33 22 33 18.617 29.719 C17.669 28.336 16.755 26.928 15.875 25.5 C15.395 24.785 14.916 24.069 14.422 23.332 C13.25 21.575 12.121 19.79 11 18 C10.67 22.95 10.34 27.9 10 33 C6.7 33 3.4 33 0 33 C0 22.11 0 11.22 0 0 Z " fill="#FFFDF8" transform="translate(867,205)"></path>
<path d="M0 0 C3.63 0 7.26 0 11 0 C11 3.3 11 6.6 11 10 C11.722 9.278 12.444 8.556 13.188 7.812 C14.58 6.42 14.58 6.42 16 5 C16.681 4.072 17.361 3.144 18.062 2.188 C22.662 -1.238 27.455 -0.398 33 0 C31.484 3.478 29.423 5.956 26.875 8.75 C26.151 9.549 25.426 10.348 24.68 11.172 C24.125 11.775 23.571 12.378 23 13 C27.504 20.946 27.504 20.946 32.438 28.625 C34 31 34 31 34 33 C29.527 33.597 25.443 33.896 21 33 C18.079 30.042 16.505 26.849 15 23 C11.874 24.605 11.874 24.605 11.488 26.945 C11.43 27.665 11.372 28.384 11.312 29.125 C11.158 31.043 11.158 31.043 11 33 C7.37 33 3.74 33 0 33 C0 22.11 0 11.22 0 0 Z " fill="#FFFDF7" transform="translate(561,205)"></path>
<path d="M0 0 C9.57 0 19.14 0 29 0 C29 2.64 29 5.28 29 8 C23.39 8 17.78 8 12 8 C12 9.32 12 10.64 12 12 C16.95 12 21.9 12 27 12 C27 14.97 27 17.94 27 21 C22.05 21 17.1 21 12 21 C12 22.32 12 23.64 12 25 C17.61 25 23.22 25 29 25 C29 27.64 29 30.28 29 33 C19.43 33 9.86 33 0 33 C0 22.11 0 11.22 0 0 Z " fill="#FFFCF5" transform="translate(645,205)"></path>
<path d="M0 0 C3.96 0 7.92 0 12 0 C13.856 4.376 15.707 8.755 17.554 13.135 C18.183 14.625 18.814 16.115 19.446 17.604 C20.353 19.743 21.255 21.883 22.156 24.023 C22.441 24.691 22.725 25.359 23.018 26.047 C25 30.772 25 30.772 25 33 C21.04 33 17.08 33 13 33 C12.505 30.525 12.505 30.525 12 28 C7.71 28 3.42 28 -1 28 C-1.33 29.65 -1.66 31.3 -2 33 C-5.96 33 -9.92 33 -14 33 C-9.619 21.847 -5.153 10.822 0 0 Z " fill="#FFFDF8" transform="translate(405,205)"></path>
<path d="M0 0 C-3.625 5.75 -3.625 5.75 -7 8 C-7.99 7.34 -8.98 6.68 -10 6 C-12.516 5.758 -12.516 5.758 -15.188 5.875 C-16.539 5.902 -16.539 5.902 -17.918 5.93 C-18.949 5.964 -18.949 5.964 -20 6 C-21.126 11.856 -21.126 11.856 -20 17.562 C-17.04 19.69 -14.539 19.267 -11 19 C-10.856 17.866 -10.711 16.731 -10.562 15.562 C-10 12 -10 12 -9 11 C-6.329 10.859 -3.676 10.958 -1 11 C0.382 13.765 0.095 16.046 0.062 19.125 C0.053 20.221 0.044 21.316 0.035 22.445 C0.024 23.288 0.012 24.131 0 25 C-7.224 29.072 -13.45 31.225 -21.688 29 C-27.043 26.984 -30.471 23.057 -33 18 C-33.524 12.744 -33.665 8.355 -31.312 3.562 C-22.311 -6.412 -10.982 -7.401 0 0 Z " fill="#FFFDF6" transform="translate(983,209)"></path>
<path d="M0 0 C3.796 3.796 7.488 7.621 11.125 11.562 C11.912 12.408 11.912 12.408 12.715 13.271 C20 21.156 20 21.156 20 24 C20.598 24.268 21.196 24.536 21.812 24.812 C23.983 25.991 25.308 27.231 27 29 C22.878 31.006 18.752 33.004 14.625 35 C13.449 35.572 12.274 36.145 11.062 36.734 C9.941 37.276 8.82 37.817 7.664 38.375 C6.627 38.878 5.59 39.38 4.522 39.898 C2 41 2 41 0 41 C0 27.47 0 13.94 0 0 Z M26 26 C28 27 28 27 28 27 Z " fill="#FFDA20" transform="translate(0,75)"></path>
<path d="M0 0 C9.9 0 19.8 0 30 0 C30 2.64 30 5.28 30 8 C25.545 8.495 25.545 8.495 21 9 C20.67 16.92 20.34 24.84 20 33 C16.37 33 12.74 33 9 33 C9 24.75 9 16.5 9 8 C6.03 8 3.06 8 0 8 C0 5.36 0 2.72 0 0 Z " fill="#FFFEFC" transform="translate(724,205)"></path>
<path d="M0 0 C-0.99 0.33 -1.98 0.66 -3 1 C-3.33 1.66 -3.66 2.32 -4 3 C-5.705 3.663 -5.705 3.663 -8.031 4.289 C-15.592 6.434 -23.041 8.904 -30.5 11.375 C-31.661 11.759 -31.661 11.759 -32.846 12.151 C-46.485 16.676 -59.923 21.644 -73.297 26.898 C-74.323 27.299 -74.323 27.299 -75.369 27.708 C-77.209 28.429 -79.046 29.156 -80.883 29.884 C-83.621 30.864 -86.116 31.643 -89 32 C-90.812 30.875 -90.812 30.875 -92 29 C-92.188 26.312 -92.188 26.312 -92 24 C-84.412 20.965 -76.6 18.739 -68.75 16.5 C-67.641 16.183 -67.641 16.183 -66.509 15.859 C-52.779 11.945 -38.971 8.357 -25.125 4.875 C-24.155 4.629 -23.186 4.384 -22.186 4.131 C-19.42 3.432 -16.652 2.742 -13.883 2.055 C-13.057 1.846 -12.232 1.637 -11.381 1.422 C-7.507 0.473 -4.023 -0.266 0 0 Z " fill="#2D5CA2" transform="translate(343,0)"></path>
<path d="M0 0 C6 0 6 0 7.723 1.574 C8.165 2.272 8.607 2.969 9.062 3.688 C11.425 7.196 13.958 10.042 17 13 C19 16 19 16 19.562 18.25 C18.641 22.754 15.347 25.031 12 28 C11.305 28.638 10.61 29.276 9.895 29.934 C6.626 32.883 3.987 35.006 0 37 C0 24.79 0 12.58 0 0 Z " fill="#FFC302" transform="translate(0,179)"></path>
<path d="M0 0 C3.63 0 7.26 0 11 0 C11 10.89 11 21.78 11 33 C7.37 33 3.74 33 0 33 C0 22.11 0 11.22 0 0 Z " fill="#FFFDF6" transform="translate(804,205)"></path>
<path d="M0 0 C3.062 1.75 3.062 1.75 5 4 C5 5.32 5 6.64 5 8 C1.284 8.201 0.228 8.152 -3 6 C-8.04 6.232 -8.04 6.232 -12 9 C-12.25 12.542 -12.25 12.542 -12 16 C-10.875 17.356 -10.875 17.356 -7.938 17.062 C-6.483 17.032 -6.483 17.032 -5 17 C-6.98 16.67 -8.96 16.34 -11 16 C-10.67 14.35 -10.34 12.7 -10 11 C-2.08 10.505 -2.08 10.505 6 10 C4.866 15.668 4.866 15.668 2.125 18.75 C1.612 19.343 1.099 19.936 0.57 20.547 C-2.668 23.543 -6.603 23.327 -10.773 23.293 C-14.068 22.859 -15.765 21.375 -18 19 C-19.555 15.89 -19.286 13.437 -19 10 C-14.925 2.007 -8.835 -1.624 0 0 Z " fill="#2C5AA1" transform="translate(795,267)"></path>
<path d="M0 0 C2.425 2.198 2.74 3.6 3 6.812 C0.125 6.938 0.125 6.938 -3 6.812 C-3.66 6.152 -4.32 5.493 -5 4.812 C-8.396 4.596 -10.758 4.732 -14 5.812 C-14.206 7.091 -14.413 8.37 -14.625 9.688 C-14.799 10.766 -14.799 10.766 -14.977 11.867 C-14.984 12.509 -14.992 13.151 -15 13.812 C-13.102 16.162 -13.102 16.162 -9.875 15.938 C-8.926 15.896 -7.978 15.855 -7 15.812 C-8.98 15.483 -10.96 15.152 -13 14.812 C-12.67 13.163 -12.34 11.512 -12 9.812 C-6.72 9.812 -1.44 9.812 4 9.812 C1.225 16.288 0.014 18.805 -6 21.812 C-8.023 21.98 -8.023 21.98 -10.375 22 C-11.146 22.014 -11.917 22.028 -12.711 22.043 C-15.287 21.784 -16.824 21.206 -19 19.812 C-21.698 15.766 -21.658 12.565 -21 7.812 C-16.603 -0.982 -9.037 -3.577 0 0 Z " fill="#2D5BA1" transform="translate(438,268.1875)"></path>
<path d="M0 0 C1.98 0 3.96 0 6 0 C7.65 3.63 9.3 7.26 11 11 C11.66 7.37 12.32 3.74 13 0 C14.98 0 16.96 0 19 0 C18.325 7.825 16.731 15.346 15 23 C13.02 23 11.04 23 9 23 C8.326 21.566 7.661 20.127 7 18.688 C6.629 17.887 6.258 17.086 5.875 16.262 C5 14 5 14 5 11 C4.34 11 3.68 11 3 11 C2.939 11.782 2.879 12.565 2.816 13.371 C2.733 14.383 2.649 15.395 2.562 16.438 C2.481 17.447 2.4 18.456 2.316 19.496 C2 22 2 22 1 23 C-0.666 23.041 -2.334 23.043 -4 23 C-3.484 15.118 -1.908 7.655 0 0 Z " fill="#2D5BA2" transform="translate(857,267)"></path>
<path d="M0 0 C1.98 0 3.96 0 6 0 C7.65 3.63 9.3 7.26 11 11 C11.66 7.37 12.32 3.74 13 0 C14.98 0 16.96 0 19 0 C17.963 7.754 16.836 15.393 15 23 C13.02 23 11.04 23 9 23 C8.326 21.566 7.661 20.127 7 18.688 C6.629 17.887 6.258 17.086 5.875 16.262 C5 14 5 14 5 11 C4.34 11 3.68 11 3 11 C2.939 11.782 2.879 12.565 2.816 13.371 C2.733 14.383 2.649 15.395 2.562 16.438 C2.481 17.447 2.4 18.456 2.316 19.496 C2 22 2 22 1 23 C-0.666 23.041 -2.334 23.043 -4 23 C-3.484 15.118 -1.908 7.655 0 0 Z " fill="#2D5BA1" transform="translate(583,267)"></path>
<path d="M0 0 C0.99 0.33 1.98 0.66 3 1 C-8.229 10.415 -8.229 10.415 -13.812 14.812 C-24.045 22.959 -33.804 31.688 -43.316 40.66 C-46.098 43.086 -48.891 45.023 -52 47 C-52.99 46.34 -53.98 45.68 -55 45 C-54.827 41.18 -54.053 40.051 -51.254 37.344 C-50.035 36.381 -48.803 35.434 -47.562 34.5 C-46.897 33.984 -46.231 33.467 -45.544 32.936 C-33.786 23.894 -21.616 15.392 -9.481 6.869 C-8.82 6.404 -8.158 5.94 -7.477 5.461 C-6.865 5.034 -6.253 4.607 -5.622 4.167 C-4.277 3.2 -2.986 2.159 -1.711 1.102 C-1.146 0.738 -0.582 0.375 0 0 Z M-57 42 C-56.34 42.33 -55.68 42.66 -55 43 C-55.99 43 -56.98 43 -58 43 C-57.67 42.67 -57.34 42.34 -57 42 Z " fill="#FFD91F" transform="translate(264,49)"></path>
<path d="M0 0 C-0.803 0.435 -0.803 0.435 -1.623 0.879 C-32.122 17.397 -32.122 17.397 -62 35 C-62.33 34.34 -62.66 33.68 -63 33 C-63.99 32.67 -64.98 32.34 -66 32 C-66 31.01 -66 30.02 -66 29 C-29.081 10.256 -29.081 10.256 -13.312 3.25 C-12.294 2.791 -11.276 2.333 -10.227 1.86 C-9.302 1.458 -8.378 1.055 -7.426 0.641 C-6.636 0.295 -5.846 -0.05 -5.032 -0.405 C-3 -1 -3 -1 0 0 Z " fill="#FFD91F" transform="translate(255,36)"></path>
<path d="M0 0 C9.917 -0.616 9.917 -0.616 13.75 1.562 C15.554 5.081 15.024 7.246 14 11 C12.562 12.938 12.562 12.938 11 14 C10.34 14 9.68 14 9 14 C9.99 16.97 10.98 19.94 12 23 C9.188 23.312 9.188 23.312 6 23 C4.125 20.5 4.125 20.5 3 18 C2.67 19.65 2.34 21.3 2 23 C0.02 23 -1.96 23 -4 23 C-2.963 15.246 -1.836 7.607 0 0 Z M5 5 C4.67 6.65 4.34 8.3 4 10 C5.65 9.67 7.3 9.34 9 9 C8.67 7.68 8.34 6.36 8 5 C7.01 5 6.02 5 5 5 Z " fill="#2D5BA2" transform="translate(384,267)"></path>
<path d="M0 0 C5.779 2.194 5.779 2.194 8 5 C8 5.66 8 6.32 8 7 C8.66 7 9.32 7 10 7 C15 12.476 15 12.476 15 15 C16.32 15.66 17.64 16.32 19 17 C2.665 17.495 2.665 17.495 -14 18 C-14 15 -14 15 -12.062 12.938 C-11.616 12.52 -11.17 12.102 -10.711 11.672 C-6.935 7.983 -3.511 3.939 0 0 Z " fill="#FFC403" transform="translate(52,236)"></path>
<path d="M0 0 C1.65 0.33 3.3 0.66 5 1 C5.674 3.728 6.339 6.457 7 9.188 C7.191 9.956 7.382 10.725 7.578 11.518 C8.516 15.421 9.26 18.952 9 23 C7.35 23 5.7 23 4 23 C3.505 20.525 3.505 20.525 3 18 C-1.051 18.246 -1.051 18.246 -5 19 C-6.59 20.921 -6.59 20.921 -7 23 C-8.98 23 -10.96 23 -13 23 C-11.492 17.314 -8.601 12.956 -5.375 8.125 C-4.859 7.341 -4.344 6.558 -3.812 5.75 C-2.548 3.829 -1.277 1.913 0 0 Z M0 9 C-0.33 9.99 -0.66 10.98 -1 12 C-0.34 12 0.32 12 1 12 C0.67 11.01 0.34 10.02 0 9 Z " fill="#2C5AA1" transform="translate(351,267)"></path>
<path d="M0 0 C4.62 0 9.24 0 14 0 C13.67 1.65 13.34 3.3 13 5 C10.36 5 7.72 5 5 5 C5 5.99 5 6.98 5 8 C7.31 8.33 9.62 8.66 12 9 C11.67 10.65 11.34 12.3 11 14 C8.36 14 5.72 14 3 14 C3 15.32 3 16.64 3 18 C5.31 18 7.62 18 10 18 C10 19.65 10 21.3 10 23 C5.71 23 1.42 23 -3 23 C-2.448 15.183 -1.517 7.688 0 0 Z " fill="#2D5BA2" transform="translate(463,267)"></path>
<path d="M0 0 C4.29 0 8.58 0 13 0 C12.67 1.65 12.34 3.3 12 5 C9.36 5 6.72 5 4 5 C4 6.32 4 7.64 4 9 C6.31 9 8.62 9 11 9 C10.67 10.65 10.34 12.3 10 14 C7.69 14.33 5.38 14.66 3 15 C2.67 15.99 2.34 16.98 2 18 C4.31 18 6.62 18 9 18 C9 19.65 9 21.3 9 23 C4.71 23 0.42 23 -4 23 C-3.409 15.078 -1.889 7.719 0 0 Z " fill="#2D5BA1" transform="translate(823,267)"></path>
<path d="M0 0 C1.792 0.017 1.792 0.017 3.621 0.035 C5.417 0.049 5.417 0.049 7.25 0.062 C8.177 0.074 9.104 0.086 10.059 0.098 C9.729 1.748 9.399 3.398 9.059 5.098 C6.419 5.098 3.779 5.098 1.059 5.098 C1.059 6.418 1.059 7.738 1.059 9.098 C3.369 9.098 5.679 9.098 8.059 9.098 C7.729 10.748 7.399 12.398 7.059 14.098 C4.419 14.098 1.779 14.098 -0.941 14.098 C-0.941 15.418 -0.941 16.738 -0.941 18.098 C1.369 18.098 3.679 18.098 6.059 18.098 C6.059 19.748 6.059 21.398 6.059 23.098 C1.769 23.098 -2.521 23.098 -6.941 23.098 C-5.155 0.171 -5.155 0.171 0 0 Z " fill="#2D5BA2" transform="translate(657.94140625,266.90234375)"></path>
<path d="M0 0 C4.672 1.531 8.022 4.108 11.812 7.125 C12.709 7.827 12.709 7.827 13.623 8.543 C15.086 9.69 16.544 10.844 18 12 C17.122 13.325 16.222 14.634 15.312 15.938 C14.814 16.668 14.315 17.399 13.801 18.152 C11.603 20.408 10.08 20.669 7 21 C5.54 19.231 4.082 17.459 2.625 15.688 C1.813 14.701 1.001 13.715 0.164 12.699 C-4.042 7.453 -4.042 7.453 -3.812 5 C-2.901 2.755 -1.815 1.578 0 0 Z " fill="#FFC403" transform="translate(104,182)"></path>
<path d="M0 0 C1.98 0 3.96 0 6 0 C6.99 2.31 7.98 4.62 9 7 C9.291 6.495 9.583 5.989 9.883 5.469 C11.147 3.465 12.349 1.703 14 0 C17.312 -0.438 17.312 -0.438 20 0 C18.521 3.231 16.647 5.863 14.5 8.688 C11.097 13.45 9.836 17.24 9 23 C7.02 23 5.04 23 3 23 C3.035 22.261 3.07 21.523 3.105 20.762 C3.304 13.321 2.335 7.06 0 0 Z " fill="#2D5BA1" transform="translate(956,267)"></path>
<path d="M0 0 C2 1 2 1 2 1 Z M2 1 C5 2 5 2 5 2 Z M5 2 C8 3 8 3 8 3 Z M8 3 C11 4 11 4 11 4 Z M11 4 C14 5 14 5 14 5 Z M14 5 C16.288 5.448 18.575 5.904 20.859 6.371 C23.115 6.823 25.377 7.25 27.641 7.66 C28.873 7.896 30.105 8.132 31.375 8.375 C33.119 8.696 33.119 8.696 34.898 9.023 C38.331 10.104 39.835 11.152 42 14 C42 14.99 42 15.98 42 17 C32.368 17.263 23.499 16.617 14 15 C14 14.67 14 14.34 14 14 C16.31 14 18.62 14 21 14 C21 13.34 21 12.68 21 12 C20.01 11.67 19.02 11.34 18 11 C16.603 9.044 15.262 7.046 14 5 Z " fill="#FFD91F" transform="translate(202,237)"></path>
<path d="M0 0 C4.29 0 8.58 0 13 0 C13 1.65 13 3.3 13 5 C11.35 5 9.7 5 8 5 C7.951 5.629 7.902 6.258 7.852 6.906 C7.366 12.469 6.494 17.62 5 23 C3.35 23 1.7 23 0 23 C0.142 21.104 0.289 19.208 0.438 17.312 C0.519 16.257 0.6 15.201 0.684 14.113 C0.965 11.349 1.402 8.711 2 6 C1.01 5.67 0.02 5.34 -1 5 C-0.67 3.35 -0.34 1.7 0 0 Z " fill="#2D5BA0" transform="translate(622,267)"></path>
<path d="M0 0 C4.29 0 8.58 0 13 0 C13 1.65 13 3.3 13 5 C11.35 5 9.7 5 8 5 C7.951 5.629 7.902 6.258 7.852 6.906 C7.366 12.469 6.494 17.62 5 23 C3.35 23 1.7 23 0 23 C0.964 11.478 0.964 11.478 2 6 C1.01 5.67 0.02 5.34 -1 5 C-0.67 3.35 -0.34 1.7 0 0 Z " fill="#2D5AA0" transform="translate(896,267)"></path>
<path d="M0 0 C4.29 0 8.58 0 13 0 C13 1.65 13 3.3 13 5 C11.35 5 9.7 5 8 5 C7.951 5.629 7.902 6.258 7.852 6.906 C7.366 12.469 6.494 17.62 5 23 C3.35 23 1.7 23 0 23 C0.483 16.795 1.333 11.001 3 5 C1.68 5 0.36 5 -1 5 C-0.67 3.35 -0.34 1.7 0 0 Z " fill="#2C5AA1" transform="translate(496,267)"></path>
<path d="M0 0 C4.29 0 8.58 0 13 0 C13 1.65 13 3.3 13 5 C11.35 5 9.7 5 8 5 C7.951 5.713 7.902 6.426 7.852 7.16 C7.419 12.705 6.76 17.721 5 23 C3.35 23 1.7 23 0 23 C0.483 16.795 1.333 11.001 3 5 C1.68 5 0.36 5 -1 5 C-0.67 3.35 -0.34 1.7 0 0 Z " fill="#2D5AA0" transform="translate(312,267)"></path>
<path d="M0 0 C1.98 0 3.96 0 6 0 C5.69 2.25 5.377 4.5 5.062 6.75 C4.888 8.003 4.714 9.256 4.535 10.547 C4.14 13.1 3.696 15.519 3 18 C4.98 18 6.96 18 9 18 C9 19.65 9 21.3 9 23 C4.71 23 0.42 23 -4 23 C-2.68 15.41 -1.36 7.82 0 0 Z " fill="#2D5BA2" transform="translate(720,267)"></path>
<path d="M0 0 C1.207 0.031 1.207 0.031 2.438 0.062 C1.954 6.268 1.104 12.062 -0.562 18.062 C1.747 18.062 4.058 18.062 6.438 18.062 C6.107 19.712 5.778 21.363 5.438 23.062 C1.477 23.062 -2.482 23.062 -6.562 23.062 C-4.774 0.116 -4.774 0.116 0 0 Z " fill="#2D5BA1" transform="translate(691.5625,266.9375)"></path>
<path d="M0 0 C1.207 0.031 1.207 0.031 2.438 0.062 C1.954 6.268 1.104 12.062 -0.562 18.062 C1.418 18.062 3.398 18.062 5.438 18.062 C5.438 19.712 5.438 21.363 5.438 23.062 C1.477 23.062 -2.482 23.062 -6.562 23.062 C-4.774 0.116 -4.774 0.116 0 0 Z " fill="#2D5BA2" transform="translate(931.5625,266.9375)"></path>
<path d="M0 0 C1.98 0 3.96 0 6 0 C4.68 7.59 3.36 15.18 2 23 C0.02 23 -1.96 23 -4 23 C-2.68 15.41 -1.36 7.82 0 0 Z " fill="#2D5BA1" transform="translate(752,267)"></path>
<path d="M0 0 C1.65 0 3.3 0 5 0 C4.484 7.882 2.908 15.345 1 23 C-0.65 23 -2.3 23 -4 23 C-3.484 15.118 -1.908 7.655 0 0 Z " fill="#2D5BA2" transform="translate(556,267)"></path>
<path d="M0 0 C3.711 1.237 4.671 2.759 7.062 5.812 C8.101 7.122 8.101 7.122 9.16 8.457 C10.71 10.599 11.919 12.598 13 15 C11.188 16.062 11.188 16.062 9 17 C5.31 15.77 4.246 14.247 1.812 11.25 C0.739 9.958 0.739 9.958 -0.355 8.641 C-2.15 5.76 -2.365 4.323 -2 1 C-1.34 0.67 -0.68 0.34 0 0 Z " fill="#FFC303" transform="translate(62,138)"></path>
<path d="M0 0 C0.66 0.33 1.32 0.66 2 1 C0.071 4.609 -1.87 8.211 -3.812 11.812 C-4.633 13.349 -4.633 13.349 -5.471 14.916 C-6.002 15.899 -6.534 16.882 -7.082 17.895 C-7.569 18.801 -8.056 19.706 -8.558 20.64 C-9.868 22.783 -11.139 24.332 -13 26 C-14.32 25.34 -15.64 24.68 -17 24 C-15.236 20.037 -12.711 16.627 -10.188 13.125 C-9.761 12.526 -9.335 11.926 -8.896 11.309 C-6.088 7.391 -3.125 3.67 0 0 Z " fill="#FFDA21" transform="translate(248,100)"></path>
<path d="M0 0 C5.75 -0.125 5.75 -0.125 8 1 C8 2.98 8 4.96 8 7 C5.291 8.354 2.991 8.065 0 8 C0 5.36 0 2.72 0 0 Z " fill="#FFC708" transform="translate(491,213)"></path>
<path d="M0 0 C0.66 0.33 1.32 0.66 2 1 C2.731 3.314 3.401 5.648 4 8 C1.69 8 -0.62 8 -3 8 C-2.01 5.36 -1.02 2.72 0 0 Z " fill="#FFC910" transform="translate(410,217)"></path>
<path d="M0 0 C0.99 0.33 1.98 0.66 3 1 C-0.3 3.64 -3.6 6.28 -7 9 C-7.99 8.34 -8.98 7.68 -10 7 C-8.405 5.8 -6.799 4.615 -5.188 3.438 C-3.848 2.446 -3.848 2.446 -2.48 1.434 C-1.253 0.724 -1.253 0.724 0 0 Z " fill="#FFCA0C" transform="translate(264,49)"></path>
<path d="M0 0 C0.99 0.33 1.98 0.66 3 1 C3.687 3.062 3.687 3.062 4 5 C2.02 5.99 2.02 5.99 0 7 C0 4.69 0 2.38 0 0 Z " fill="#FFAA00" transform="translate(0,209)"></path>
<path d="M0 0 C-5.75 3 -5.75 3 -8 3 C-8 2.34 -8 1.68 -8 1 C-3.375 -1.125 -3.375 -1.125 0 0 Z " fill="#FFC808" transform="translate(255,36)"></path>
</svg>